<svg xmlns="http://www.w3.org/2000/svg" xmlns:xlink="http://www.w3.org/1999/xlink" width="550" zoomAndPan="magnify" viewBox="0 0 412.5 187.499995" height="250" preserveAspectRatio="xMidYMid meet" version="1.2"><defs><clipPath id="94d88b1dbf"><rect x="0" width="266" y="0" height="138"/></clipPath></defs><g id="f357f89d20"><g transform="matrix(1,0,0,1,73,24)"><g clip-path="url(#94d88b1dbf)"><g style="fill:#2b2b2b;fill-opacity:1;"><g transform="translate(1.211715, 110.316109)"><path style="stroke:none" d="M 21.625 -1.25 C 21.207031 -1.25 20.851562 -1.269531 20.5625 -1.3125 C 20.269531 -1.351562 19.914062 -1.414062 19.5 -1.5 C 19.164062 -1.582031 18.875 -1.625 18.625 -1.625 C 18.375 -1.625 18.125 -1.664062 17.875 -1.75 C 17.707031 -1.75 17.457031 -1.75 17.125 -1.75 C 16.125 -1.75 15.414062 -1.789062 15 -1.875 C 14.664062 -2.039062 14.375 -2.207031 14.125 -2.375 C 13.875 -2.539062 13.664062 -2.707031 13.5 -2.875 C 13.25 -2.957031 12.976562 -3.019531 12.6875 -3.0625 C 12.394531 -3.101562 12.125 -3.164062 11.875 -3.25 C 11.625 -3.332031 11.394531 -3.414062 11.1875 -3.5 C 10.976562 -3.582031 10.789062 -3.75 10.625 -4 C 10.457031 -4.164062 10.3125 -4.375 10.1875 -4.625 C 10.0625 -4.875 9.914062 -5.082031 9.75 -5.25 C 9.414062 -5.664062 9.101562 -6.101562 8.8125 -6.5625 C 8.519531 -7.019531 8.207031 -7.457031 7.875 -7.875 C 7.707031 -8.207031 7.375 -8.582031 6.875 -9 C 6.539062 -9.25 6.25 -9.664062 6 -10.25 C 5.75 -10.75 5.5 -11.226562 5.25 -11.6875 C 5 -12.144531 4.789062 -12.625 4.625 -13.125 C 4.125 -14.289062 3.707031 -15.457031 3.375 -16.625 C 3.207031 -17.207031 3.101562 -17.789062 3.0625 -18.375 C 3.019531 -18.957031 2.914062 -19.539062 2.75 -20.125 C 2.75 -20.375 2.707031 -20.644531 2.625 -20.9375 C 2.539062 -21.226562 2.5 -21.5 2.5 -21.75 C 2.5 -22 2.519531 -22.25 2.5625 -22.5 C 2.601562 -22.75 2.625 -23 2.625 -23.25 C 2.625 -23.832031 2.5625 -24.4375 2.4375 -25.0625 C 2.3125 -25.6875 2.25 -26.332031 2.25 -27 C 2.25 -27.582031 2.269531 -28.125 2.3125 -28.625 C 2.351562 -29.125 2.375 -29.664062 2.375 -30.25 C 2.375 -30.582031 2.375 -30.894531 2.375 -31.1875 C 2.375 -31.488281 2.375 -31.765625 2.375 -32.015625 C 2.375 -32.347656 2.394531 -32.640625 2.4375 -32.890625 C 2.476562 -33.140625 2.5 -33.390625 2.5 -33.640625 C 2.582031 -33.890625 2.601562 -34.179688 2.5625 -34.515625 C 2.519531 -34.847656 2.5 -35.140625 2.5 -35.390625 C 2.5 -36.140625 2.601562 -36.847656 2.8125 -37.515625 C 3.019531 -38.179688 3.125 -38.679688 3.125 -39.015625 C 3.207031 -39.765625 3.269531 -40.367188 3.3125 -40.828125 C 3.351562 -41.285156 3.414062 -41.804688 3.5 -42.390625 C 3.5 -42.722656 3.5625 -43.035156 3.6875 -43.328125 C 3.8125 -43.617188 3.914062 -43.890625 4 -44.140625 C 4.082031 -44.722656 4.164062 -45.285156 4.25 -45.828125 C 4.332031 -46.367188 4.457031 -46.929688 4.625 -47.515625 C 4.789062 -48.097656 5 -48.660156 5.25 -49.203125 C 5.5 -49.742188 5.75 -50.304688 6 -50.890625 C 6.164062 -51.390625 6.332031 -51.890625 6.5 -52.390625 C 6.664062 -52.890625 6.914062 -53.390625 7.25 -53.890625 C 7.832031 -54.890625 8.539062 -55.722656 9.375 -56.390625 C 10.207031 -57.054688 10.957031 -57.679688 11.625 -58.265625 C 12.207031 -58.597656 12.707031 -58.847656 13.125 -59.015625 C 13.539062 -59.179688 14.125 -59.347656 14.875 -59.515625 C 15.375 -59.679688 15.832031 -59.785156 16.25 -59.828125 C 16.664062 -59.867188 17.164062 -59.972656 17.75 -60.140625 C 18.25 -60.304688 18.75 -60.429688 19.25 -60.515625 C 19.75 -60.597656 20.25 -60.722656 20.75 -60.890625 C 21.082031 -60.972656 21.457031 -61.097656 21.875 -61.265625 C 22.289062 -61.429688 22.75 -61.515625 23.25 -61.515625 C 23.75 -61.515625 24.351562 -61.429688 25.0625 -61.265625 C 25.769531 -61.097656 26.289062 -60.929688 26.625 -60.765625 C 27.125 -60.515625 27.582031 -60.242188 28 -59.953125 C 28.414062 -59.660156 28.875 -59.390625 29.375 -59.140625 C 30.125 -58.640625 30.835938 -57.972656 31.515625 -57.140625 C 31.847656 -56.640625 32.140625 -56.347656 32.390625 -56.265625 C 32.640625 -56.097656 32.847656 -55.972656 33.015625 -55.890625 C 33.179688 -55.804688 33.347656 -55.640625 33.515625 -55.390625 C 33.597656 -55.222656 33.679688 -55.054688 33.765625 -54.890625 C 33.847656 -54.722656 33.929688 -54.515625 34.015625 -54.265625 C 34.179688 -54.097656 34.328125 -53.910156 34.453125 -53.703125 C 34.578125 -53.492188 34.679688 -53.265625 34.765625 -53.015625 C 35.015625 -52.679688 35.203125 -52.285156 35.328125 -51.828125 C 35.453125 -51.367188 35.515625 -50.890625 35.515625 -50.390625 C 35.679688 -49.890625 35.765625 -49.367188 35.765625 -48.828125 C 35.765625 -48.285156 35.765625 -47.765625 35.765625 -47.265625 C 35.765625 -46.597656 35.828125 -46.015625 35.953125 -45.515625 C 36.078125 -45.015625 36.140625 -44.390625 36.140625 -43.640625 C 36.140625 -42.472656 36.054688 -41.347656 35.890625 -40.265625 C 35.722656 -39.179688 35.554688 -38.097656 35.390625 -37.015625 C 35.304688 -35.847656 35.097656 -34.890625 34.765625 -34.140625 C 34.597656 -33.890625 34.265625 -33.679688 33.765625 -33.515625 C 33.515625 -33.429688 33.265625 -33.328125 33.015625 -33.203125 C 32.765625 -33.078125 32.515625 -33.015625 32.265625 -33.015625 C 31.585938 -32.847656 31.019531 -32.703125 30.5625 -32.578125 C 30.101562 -32.453125 29.75 -32.390625 29.5 -32.390625 C 29.164062 -32.390625 28.875 -32.515625 28.625 -32.765625 C 28.375 -33.015625 28.039062 -33.140625 27.625 -33.140625 C 27.457031 -33.140625 27.289062 -33.117188 27.125 -33.078125 C 26.957031 -33.035156 26.789062 -33.015625 26.625 -33.015625 C 26.375 -33.015625 26.125 -33.097656 25.875 -33.265625 C 25.625 -33.429688 25.414062 -33.597656 25.25 -33.765625 C 25.082031 -33.847656 24.894531 -34.015625 24.6875 -34.265625 C 24.476562 -34.515625 24.375 -34.804688 24.375 -35.140625 C 24.375 -35.890625 24.375 -36.597656 24.375 -37.265625 C 24.375 -37.929688 24.375 -38.640625 24.375 -39.390625 C 24.375 -40.472656 24.332031 -41.679688 24.25 -43.015625 C 24.164062 -44.347656 24 -45.597656 23.75 -46.765625 C 23.664062 -47.347656 23.519531 -47.890625 23.3125 -48.390625 C 23.101562 -48.890625 22.957031 -49.429688 22.875 -50.015625 C 22.875 -50.097656 22.875 -50.304688 22.875 -50.640625 C 22.875 -51.472656 22.789062 -51.992188 22.625 -52.203125 C 22.457031 -52.410156 22.289062 -52.515625 22.125 -52.515625 C 21.625 -52.515625 21.164062 -52.347656 20.75 -52.015625 C 20.664062 -51.847656 20.601562 -51.660156 20.5625 -51.453125 C 20.519531 -51.242188 20.457031 -50.972656 20.375 -50.640625 C 20.289062 -50.472656 20.1875 -50.265625 20.0625 -50.015625 C 19.9375 -49.765625 19.875 -49.597656 19.875 -49.515625 C 19.789062 -49.265625 19.726562 -48.992188 19.6875 -48.703125 C 19.644531 -48.410156 19.582031 -48.140625 19.5 -47.890625 C 19.414062 -47.722656 19.289062 -47.535156 19.125 -47.328125 C 18.957031 -47.117188 18.832031 -46.890625 18.75 -46.640625 C 18.582031 -46.054688 18.4375 -45.367188 18.3125 -44.578125 C 18.1875 -43.785156 18.082031 -43.097656 18 -42.515625 C 17.832031 -41.765625 17.726562 -41.015625 17.6875 -40.265625 C 17.644531 -39.515625 17.5 -38.765625 17.25 -38.015625 C 17.164062 -37.679688 17.0625 -37.347656 16.9375 -37.015625 C 16.8125 -36.679688 16.707031 -36.347656 16.625 -36.015625 C 16.457031 -35.347656 16.332031 -34.597656 16.25 -33.765625 C 16.25 -32.429688 16.207031 -31.09375 16.125 -29.75 C 16.039062 -28.414062 15.957031 -27.082031 15.875 -25.75 C 15.789062 -25.25 15.726562 -24.75 15.6875 -24.25 C 15.644531 -23.75 15.625 -23.25 15.625 -22.75 C 15.625 -22.414062 15.644531 -22.0625 15.6875 -21.6875 C 15.726562 -21.3125 15.75 -20.914062 15.75 -20.5 C 15.832031 -20 15.875 -19.539062 15.875 -19.125 C 15.875 -18.707031 15.914062 -18.207031 16 -17.625 C 16.082031 -17.125 16.164062 -16.625 16.25 -16.125 C 16.332031 -15.625 16.414062 -15.164062 16.5 -14.75 C 16.582031 -14.25 16.664062 -13.6875 16.75 -13.0625 C 16.832031 -12.4375 17.039062 -11.957031 17.375 -11.625 C 18.039062 -10.789062 18.707031 -10.375 19.375 -10.375 C 19.789062 -10.375 20.125 -10.582031 20.375 -11 C 20.625 -11.414062 20.789062 -11.75 20.875 -12 C 21.039062 -12.332031 21.164062 -12.664062 21.25 -13 C 21.332031 -13.332031 21.414062 -13.707031 21.5 -14.125 C 21.582031 -14.539062 21.644531 -14.976562 21.6875 -15.4375 C 21.726562 -15.894531 21.789062 -16.332031 21.875 -16.75 C 21.957031 -17.25 22.082031 -17.6875 22.25 -18.0625 C 22.414062 -18.4375 22.582031 -18.832031 22.75 -19.25 C 22.914062 -19.664062 23 -20 23 -20.25 C 23 -20.914062 23.207031 -21.539062 23.625 -22.125 C 23.957031 -22.457031 24.269531 -22.832031 24.5625 -23.25 C 24.851562 -23.664062 25.207031 -24 25.625 -24.25 C 25.789062 -24.332031 26 -24.4375 26.25 -24.5625 C 26.5 -24.6875 26.75 -24.75 27 -24.75 C 27.25 -24.75 27.457031 -24.726562 27.625 -24.6875 C 27.789062 -24.644531 27.957031 -24.625 28.125 -24.625 C 28.457031 -24.625 28.789062 -24.6875 29.125 -24.8125 C 29.457031 -24.9375 29.789062 -25 30.125 -25 C 30.539062 -25 30.832031 -24.9375 31 -24.8125 C 31.164062 -24.6875 31.378906 -24.539062 31.640625 -24.375 C 32.054688 -24.207031 32.472656 -24.0625 32.890625 -23.9375 C 33.304688 -23.8125 33.679688 -23.664062 34.015625 -23.5 C 34.847656 -23 35.429688 -22.207031 35.765625 -21.125 C 36.015625 -20.457031 36.140625 -19.707031 36.140625 -18.875 C 36.140625 -18.125 36.054688 -17.394531 35.890625 -16.6875 C 35.722656 -15.976562 35.515625 -15.289062 35.265625 -14.625 C 35.097656 -14.039062 34.910156 -13.457031 34.703125 -12.875 C 34.492188 -12.289062 34.347656 -11.707031 34.265625 -11.125 C 34.179688 -10.539062 34.078125 -9.957031 33.953125 -9.375 C 33.828125 -8.789062 33.640625 -8.25 33.390625 -7.75 C 33.140625 -7.25 32.804688 -6.789062 32.390625 -6.375 C 32.222656 -6.125 32.035156 -5.914062 31.828125 -5.75 C 31.617188 -5.582031 31.425781 -5.414062 31.25 -5.25 C 31.082031 -5.082031 30.957031 -4.894531 30.875 -4.6875 C 30.789062 -4.476562 30.664062 -4.289062 30.5 -4.125 C 30.332031 -3.957031 30.125 -3.832031 29.875 -3.75 C 29.625 -3.664062 29.414062 -3.625 29.25 -3.625 C 28.914062 -3.457031 28.539062 -3.25 28.125 -3 C 27.707031 -2.582031 27.25 -2.289062 26.75 -2.125 C 26.332031 -1.957031 25.976562 -1.8125 25.6875 -1.6875 C 25.394531 -1.5625 24.957031 -1.5 24.375 -1.5 C 24.039062 -1.414062 23.75 -1.375 23.5 -1.375 C 23.25 -1.375 23 -1.332031 22.75 -1.25 C 22.332031 -1.25 21.957031 -1.25 21.625 -1.25 Z M 21.625 -1.25 "/></g></g><g style="fill:#2b2b2b;fill-opacity:1;"><g transform="translate(41.470635, 110.316109)"><path style="stroke:none" d="M 34.140625 2.125 C 33.472656 2.125 32.78125 2.0625 32.0625 1.9375 C 31.351562 1.8125 30.625 1.539062 29.875 1.125 C 29.457031 0.875 29.039062 0.6875 28.625 0.5625 C 28.207031 0.4375 27.832031 0.25 27.5 0 C 27.082031 -0.25 26.707031 -0.5 26.375 -0.75 C 26.039062 -1 25.75 -1.332031 25.5 -1.75 C 25.25 -2.164062 25.082031 -2.601562 25 -3.0625 C 24.914062 -3.519531 24.832031 -3.957031 24.75 -4.375 C 24.582031 -5.289062 24.414062 -5.75 24.25 -5.75 C 24.082031 -5.75 23.789062 -5.625 23.375 -5.375 C 22.707031 -4.957031 21.976562 -4.601562 21.1875 -4.3125 C 20.394531 -4.019531 19.625 -3.875 18.875 -3.875 C 18.625 -3.875 18.351562 -3.914062 18.0625 -4 C 17.769531 -4.082031 17.5 -4.125 17.25 -4.125 C 17 -4.125 16.8125 -4.082031 16.6875 -4 C 16.5625 -3.914062 16.414062 -3.914062 16.25 -4 C 16.082031 -4 15.914062 -4.019531 15.75 -4.0625 C 15.582031 -4.101562 15.414062 -4.125 15.25 -4.125 C 15.082031 -4.125 14.9375 -4.125 14.8125 -4.125 C 14.6875 -4.125 14.539062 -4.125 14.375 -4.125 C 13.957031 -4.125 13.644531 -4.207031 13.4375 -4.375 C 13.226562 -4.539062 12.957031 -4.664062 12.625 -4.75 C 12.289062 -4.832031 11.875 -4.875 11.375 -4.875 C 11.039062 -4.875 10.789062 -4.914062 10.625 -5 C 10.457031 -5.082031 10.25 -5.207031 10 -5.375 C 9.582031 -5.625 9.144531 -5.8125 8.6875 -5.9375 C 8.226562 -6.0625 7.75 -6.332031 7.25 -6.75 C 6.5 -7.414062 5.8125 -8.082031 5.1875 -8.75 C 4.5625 -9.414062 3.957031 -10.207031 3.375 -11.125 C 3.125 -11.457031 2.976562 -11.875 2.9375 -12.375 C 2.894531 -12.875 2.789062 -13.375 2.625 -13.875 C 2.539062 -14.289062 2.394531 -14.789062 2.1875 -15.375 C 1.976562 -15.957031 1.789062 -16.539062 1.625 -17.125 C 1.539062 -17.289062 1.476562 -17.476562 1.4375 -17.6875 C 1.394531 -17.894531 1.375 -18.082031 1.375 -18.25 C 1.375 -18.414062 1.414062 -18.601562 1.5 -18.8125 C 1.582031 -19.019531 1.625 -19.207031 1.625 -19.375 C 1.625 -19.707031 1.601562 -19.976562 1.5625 -20.1875 C 1.519531 -20.394531 1.5 -20.582031 1.5 -20.75 C 1.5 -20.914062 1.5625 -21.164062 1.6875 -21.5 C 1.8125 -21.832031 1.914062 -22.164062 2 -22.5 C 2.082031 -22.914062 2.1875 -23.351562 2.3125 -23.8125 C 2.4375 -24.269531 2.625 -24.664062 2.875 -25 C 3.207031 -25.414062 3.539062 -25.8125 3.875 -26.1875 C 4.207031 -26.5625 4.539062 -26.914062 4.875 -27.25 C 5.289062 -27.664062 5.664062 -27.9375 6 -28.0625 C 6.332031 -28.1875 6.75 -28.332031 7.25 -28.5 C 7.582031 -28.582031 7.914062 -28.75 8.25 -29 C 8.582031 -29.164062 8.875 -29.269531 9.125 -29.3125 C 9.375 -29.351562 9.625 -29.414062 9.875 -29.5 C 10.375 -29.664062 10.75 -29.789062 11 -29.875 C 11.25 -29.957031 11.664062 -30.039062 12.25 -30.125 C 12.5 -30.207031 12.769531 -30.25 13.0625 -30.25 C 13.351562 -30.25 13.664062 -30.289062 14 -30.375 C 14.25 -30.457031 14.4375 -30.5625 14.5625 -30.6875 C 14.6875 -30.8125 14.914062 -30.875 15.25 -30.875 C 15.582031 -30.875 15.894531 -30.851562 16.1875 -30.8125 C 16.476562 -30.769531 16.789062 -30.75 17.125 -30.75 C 17.289062 -30.75 17.625 -30.769531 18.125 -30.8125 C 18.625 -30.851562 18.957031 -30.875 19.125 -30.875 C 19.625 -30.875 20.082031 -30.789062 20.5 -30.625 C 20.914062 -30.457031 21.625 -30.125 22.625 -29.625 C 22.875 -29.539062 23.226562 -29.394531 23.6875 -29.1875 C 24.144531 -28.976562 24.539062 -28.875 24.875 -28.875 C 25.207031 -28.875 25.414062 -29.164062 25.5 -29.75 C 25.5 -30 25.5 -30.25 25.5 -30.5 C 25.5 -31.757812 25.539062 -32.679688 25.625 -33.265625 C 25.707031 -33.847656 25.75 -34.472656 25.75 -35.140625 C 25.75 -36.304688 25.707031 -37.390625 25.625 -38.390625 C 25.539062 -39.390625 25.5 -40.472656 25.5 -41.640625 C 25.5 -42.722656 25.5 -43.804688 25.5 -44.890625 C 25.5 -45.972656 25.457031 -47.097656 25.375 -48.265625 C 25.375 -48.679688 25.3125 -49.160156 25.1875 -49.703125 C 25.0625 -50.242188 24.914062 -50.679688 24.75 -51.015625 C 24.582031 -51.347656 24.207031 -51.515625 23.625 -51.515625 C 23.125 -51.515625 22.707031 -51.429688 22.375 -51.265625 C 21.539062 -50.929688 21.0625 -50.617188 20.9375 -50.328125 C 20.8125 -50.035156 20.5 -49.515625 20 -48.765625 C 19.582031 -48.097656 19.289062 -47.429688 19.125 -46.765625 C 19.125 -46.597656 19.039062 -46.347656 18.875 -46.015625 C 18.625 -45.597656 18.414062 -45.222656 18.25 -44.890625 C 18.082031 -44.554688 17.957031 -44.097656 17.875 -43.515625 C 17.789062 -43.097656 17.6875 -42.679688 17.5625 -42.265625 C 17.4375 -41.847656 17.375 -41.304688 17.375 -40.640625 C 17.375 -40.140625 17.394531 -39.742188 17.4375 -39.453125 C 17.476562 -39.160156 17.5 -38.722656 17.5 -38.140625 C 17.5 -37.722656 17.3125 -37.347656 16.9375 -37.015625 C 16.5625 -36.679688 16.25 -36.390625 16 -36.140625 C 15.5 -35.804688 15 -35.535156 14.5 -35.328125 C 14 -35.117188 13.289062 -35.015625 12.375 -35.015625 C 11.789062 -35.015625 11.351562 -35.054688 11.0625 -35.140625 C 10.769531 -35.222656 10.332031 -35.265625 9.75 -35.265625 C 9.5 -35.265625 9.207031 -35.242188 8.875 -35.203125 C 8.539062 -35.160156 8.25 -35.140625 8 -35.140625 C 7.664062 -35.140625 7.332031 -35.222656 7 -35.390625 C 6.664062 -35.554688 6.414062 -35.722656 6.25 -35.890625 C 5.582031 -36.304688 5.164062 -36.722656 5 -37.140625 C 4.832031 -37.554688 4.75 -38.222656 4.75 -39.140625 C 4.75 -39.640625 4.789062 -40.179688 4.875 -40.765625 C 4.957031 -41.929688 5.082031 -42.992188 5.25 -43.953125 C 5.414062 -44.910156 5.625 -45.929688 5.875 -47.015625 C 6.125 -48.097656 6.457031 -49.097656 6.875 -50.015625 C 7.289062 -50.929688 7.789062 -51.847656 8.375 -52.765625 C 8.875 -53.597656 9.351562 -54.203125 9.8125 -54.578125 C 10.269531 -54.953125 10.875 -55.472656 11.625 -56.140625 C 12.289062 -56.804688 13.039062 -57.304688 13.875 -57.640625 C 14.707031 -57.972656 15.582031 -58.304688 16.5 -58.640625 C 17 -58.804688 17.476562 -58.953125 17.9375 -59.078125 C 18.394531 -59.203125 18.914062 -59.304688 19.5 -59.390625 C 20.664062 -59.640625 21.75 -59.765625 22.75 -59.765625 C 23.332031 -59.765625 23.832031 -59.703125 24.25 -59.578125 C 24.664062 -59.453125 25.125 -59.304688 25.625 -59.140625 C 26.125 -59.054688 26.644531 -58.953125 27.1875 -58.828125 C 27.726562 -58.703125 28.25 -58.554688 28.75 -58.390625 C 29.25 -58.304688 29.664062 -58.140625 30 -57.890625 C 30.832031 -57.554688 31.4375 -57.179688 31.8125 -56.765625 C 32.195312 -56.347656 32.765625 -55.972656 33.515625 -55.640625 C 33.847656 -55.472656 34.097656 -55.367188 34.265625 -55.328125 C 34.429688 -55.285156 34.679688 -55.140625 35.015625 -54.890625 C 35.179688 -54.804688 35.328125 -54.660156 35.453125 -54.453125 C 35.578125 -54.242188 35.679688 -54.054688 35.765625 -53.890625 C 36.097656 -53.472656 36.390625 -53.015625 36.640625 -52.515625 C 36.890625 -52.015625 37.097656 -51.554688 37.265625 -51.140625 C 37.515625 -50.640625 37.722656 -50.179688 37.890625 -49.765625 C 38.054688 -49.347656 38.222656 -48.890625 38.390625 -48.390625 C 38.554688 -47.890625 38.703125 -47.347656 38.828125 -46.765625 C 38.953125 -46.179688 39.097656 -45.640625 39.265625 -45.140625 C 39.429688 -44.554688 39.515625 -43.972656 39.515625 -43.390625 C 39.515625 -42.890625 39.515625 -42.304688 39.515625 -41.640625 C 39.515625 -40.972656 39.515625 -40.554688 39.515625 -40.390625 C 39.429688 -39.140625 39.328125 -37.867188 39.203125 -36.578125 C 39.078125 -35.285156 39.015625 -34.015625 39.015625 -32.765625 C 39.015625 -32.429688 39.035156 -32.09375 39.078125 -31.75 C 39.117188 -31.414062 39.140625 -31.082031 39.140625 -30.75 C 39.140625 -30.414062 39.097656 -30.125 39.015625 -29.875 C 38.929688 -29.625 38.890625 -29.414062 38.890625 -29.25 C 38.890625 -29.164062 38.910156 -29.0625 38.953125 -28.9375 C 38.992188 -28.8125 39.015625 -28.664062 39.015625 -28.5 C 39.015625 -28.082031 38.929688 -27.625 38.765625 -27.125 C 38.515625 -26.039062 38.429688 -25 38.515625 -24 C 38.597656 -23 38.597656 -21.957031 38.515625 -20.875 C 38.429688 -19.789062 38.429688 -18.726562 38.515625 -17.6875 C 38.597656 -16.644531 38.679688 -15.539062 38.765625 -14.375 C 38.765625 -13.789062 38.785156 -13.226562 38.828125 -12.6875 C 38.867188 -12.144531 38.890625 -11.539062 38.890625 -10.875 C 38.890625 -10.375 38.953125 -9.914062 39.078125 -9.5 C 39.203125 -9.082031 39.265625 -8.582031 39.265625 -8 C 39.265625 -7.582031 39.222656 -7.226562 39.140625 -6.9375 C 39.054688 -6.644531 39.015625 -6.332031 39.015625 -6 C 39.015625 -5.832031 39.015625 -5.6875 39.015625 -5.5625 C 39.015625 -5.4375 39.015625 -5.289062 39.015625 -5.125 C 39.015625 -5.039062 39.015625 -4.9375 39.015625 -4.8125 C 39.015625 -4.6875 38.972656 -4.457031 38.890625 -4.125 C 38.890625 -3.875 38.890625 -3.601562 38.890625 -3.3125 C 38.890625 -3.019531 38.847656 -2.75 38.765625 -2.5 C 38.679688 -2.082031 38.535156 -1.664062 38.328125 -1.25 C 38.117188 -0.832031 37.929688 -0.414062 37.765625 0 C 37.347656 0.75 36.890625 1.289062 36.390625 1.625 C 35.890625 1.957031 35.140625 2.125 34.140625 2.125 Z M 17.625 -12.25 C 17.875 -12.25 18.125 -12.269531 18.375 -12.3125 C 18.625 -12.351562 18.875 -12.375 19.125 -12.375 C 19.539062 -12.375 19.875 -12.351562 20.125 -12.3125 C 20.375 -12.269531 20.664062 -12.332031 21 -12.5 C 21.25 -12.582031 21.4375 -12.75 21.5625 -13 C 21.6875 -13.25 21.832031 -13.457031 22 -13.625 C 22.164062 -13.875 22.351562 -14.0625 22.5625 -14.1875 C 22.769531 -14.3125 23 -14.5 23.25 -14.75 C 23.5 -15 23.6875 -15.226562 23.8125 -15.4375 C 23.9375 -15.644531 24.082031 -15.875 24.25 -16.125 C 24.414062 -16.375 24.601562 -16.601562 24.8125 -16.8125 C 25.019531 -17.019531 25.125 -17.289062 25.125 -17.625 C 25.125 -17.789062 25.039062 -18 24.875 -18.25 C 24.707031 -18.5 24.582031 -18.707031 24.5 -18.875 C 24.332031 -19.125 24.164062 -19.375 24 -19.625 C 23.832031 -19.875 23.664062 -20.125 23.5 -20.375 C 23.25 -20.789062 22.914062 -21.144531 22.5 -21.4375 C 22.082031 -21.726562 21.664062 -22 21.25 -22.25 C 20.582031 -22.582031 19.875 -22.75 19.125 -22.75 C 18.789062 -22.75 18.394531 -22.6875 17.9375 -22.5625 C 17.476562 -22.4375 17.164062 -22.207031 17 -21.875 C 16.832031 -21.625 16.769531 -21.4375 16.8125 -21.3125 C 16.851562 -21.1875 16.789062 -21 16.625 -20.75 C 16.375 -20.414062 16.039062 -20.039062 15.625 -19.625 C 15.207031 -19.207031 15 -18.75 15 -18.25 C 15 -17.914062 15.019531 -17.664062 15.0625 -17.5 C 15.101562 -17.332031 15.125 -17.125 15.125 -16.875 C 15.125 -16.707031 15.101562 -16.519531 15.0625 -16.3125 C 15.019531 -16.101562 15 -15.914062 15 -15.75 C 15 -14.832031 15.164062 -14.082031 15.5 -13.5 C 16 -12.664062 16.707031 -12.25 17.625 -12.25 Z M 17.625 -12.25 "/></g></g><g style="fill:#2b2b2b;fill-opacity:1;"><g transform="translate(85.605421, 110.316109)"><path style="stroke:none" d="M 7.125 -1 C 6.875 -1 6.601562 -1.039062 6.3125 -1.125 C 6.019531 -1.207031 5.75 -1.289062 5.5 -1.375 C 5.25 -1.457031 5.019531 -1.539062 4.8125 -1.625 C 4.601562 -1.707031 4.414062 -1.789062 4.25 -1.875 C 3.664062 -2.125 3.25 -2.332031 3 -2.5 C 2.832031 -2.75 2.75 -3 2.75 -3.25 C 2.75 -3.5 2.75 -3.664062 2.75 -3.75 C 2.75 -3.832031 2.769531 -3.914062 2.8125 -4 C 2.851562 -4.082031 2.875 -4.164062 2.875 -4.25 C 2.957031 -4.414062 3 -4.5625 3 -4.6875 C 3 -4.8125 3.039062 -4.957031 3.125 -5.125 C 3.207031 -5.625 3.269531 -6.125 3.3125 -6.625 C 3.351562 -7.125 3.414062 -7.625 3.5 -8.125 C 3.664062 -9.207031 3.789062 -10.125 3.875 -10.875 C 3.957031 -11.625 4 -12.164062 4 -12.5 C 4 -13.832031 3.976562 -15.144531 3.9375 -16.4375 C 3.894531 -17.726562 3.914062 -19.039062 4 -20.375 C 4.082031 -21.375 4.144531 -22.394531 4.1875 -23.4375 C 4.226562 -24.476562 4.25 -25.539062 4.25 -26.625 C 4.332031 -28.707031 4.414062 -30.789062 4.5 -32.875 C 4.582031 -34.96875 4.625 -37.054688 4.625 -39.140625 C 4.625 -39.722656 4.644531 -40.285156 4.6875 -40.828125 C 4.726562 -41.367188 4.75 -42.015625 4.75 -42.765625 C 4.75 -43.265625 4.726562 -43.785156 4.6875 -44.328125 C 4.644531 -44.867188 4.625 -45.390625 4.625 -45.890625 C 4.625 -47.054688 4.6875 -48.347656 4.8125 -49.765625 C 4.9375 -51.179688 5 -52.265625 5 -53.015625 C 5 -53.515625 4.957031 -54.054688 4.875 -54.640625 C 4.875 -55.222656 4.875 -55.722656 4.875 -56.140625 C 4.957031 -56.722656 5.039062 -57.160156 5.125 -57.453125 C 5.207031 -57.742188 5.25 -58.097656 5.25 -58.515625 C 5.25 -58.929688 5.226562 -59.328125 5.1875 -59.703125 C 5.144531 -60.078125 5.082031 -60.472656 5 -60.890625 C 5 -61.390625 4.976562 -61.910156 4.9375 -62.453125 C 4.894531 -62.992188 4.875 -63.515625 4.875 -64.015625 C 4.789062 -65.097656 4.789062 -66.160156 4.875 -67.203125 C 4.957031 -68.242188 5.039062 -69.265625 5.125 -70.265625 C 5.125 -70.765625 5.144531 -71.285156 5.1875 -71.828125 C 5.226562 -72.367188 5.25 -72.890625 5.25 -73.390625 C 5.332031 -73.890625 5.394531 -74.410156 5.4375 -74.953125 C 5.476562 -75.492188 5.582031 -76.015625 5.75 -76.515625 C 5.914062 -77.097656 6.25 -77.722656 6.75 -78.390625 C 7 -78.722656 7.332031 -79.035156 7.75 -79.328125 C 8.164062 -79.617188 8.832031 -79.890625 9.75 -80.140625 C 10.25 -80.222656 10.625 -80.453125 10.875 -80.828125 C 11.125 -81.203125 11.457031 -81.472656 11.875 -81.640625 C 12.289062 -81.804688 12.707031 -81.929688 13.125 -82.015625 C 13.539062 -82.097656 13.957031 -82.265625 14.375 -82.515625 C 14.707031 -82.765625 14.957031 -82.890625 15.125 -82.890625 C 15.289062 -82.890625 15.476562 -82.847656 15.6875 -82.765625 C 15.894531 -82.679688 16.125 -82.640625 16.375 -82.640625 C 16.789062 -82.640625 17.082031 -82.679688 17.25 -82.765625 C 17.414062 -82.847656 17.664062 -82.890625 18 -82.890625 C 18.25 -82.890625 18.539062 -82.867188 18.875 -82.828125 C 19.207031 -82.785156 19.457031 -82.765625 19.625 -82.765625 C 19.789062 -82.765625 19.914062 -82.765625 20 -82.765625 C 20.082031 -82.765625 20.207031 -82.765625 20.375 -82.765625 C 21.125 -82.765625 21.625 -82.597656 21.875 -82.265625 C 22.289062 -81.847656 22.789062 -80.929688 23.375 -79.515625 C 23.707031 -78.597656 24.0625 -77.703125 24.4375 -76.828125 C 24.8125 -75.953125 25.082031 -75.015625 25.25 -74.015625 C 25.332031 -73.597656 25.394531 -73.140625 25.4375 -72.640625 C 25.476562 -72.140625 25.582031 -71.640625 25.75 -71.140625 L 26.375 -68.015625 C 26.625 -66.765625 26.832031 -65.554688 27 -64.390625 C 27.082031 -63.890625 27.144531 -63.242188 27.1875 -62.453125 C 27.226562 -61.660156 27.289062 -60.972656 27.375 -60.390625 C 27.539062 -59.554688 27.707031 -58.804688 27.875 -58.140625 C 28.039062 -57.472656 28.164062 -56.679688 28.25 -55.765625 C 28.332031 -55.265625 28.394531 -54.742188 28.4375 -54.203125 C 28.476562 -53.660156 28.582031 -53.140625 28.75 -52.640625 C 28.832031 -52.054688 28.9375 -51.617188 29.0625 -51.328125 C 29.1875 -51.035156 29.289062 -50.554688 29.375 -49.890625 C 29.375 -49.304688 29.375 -48.554688 29.375 -47.640625 C 29.375 -46.722656 29.414062 -45.890625 29.5 -45.140625 C 29.582031 -44.472656 29.707031 -44.097656 29.875 -44.015625 C 30.039062 -44.179688 30.207031 -44.554688 30.375 -45.140625 C 30.539062 -45.890625 30.726562 -46.785156 30.9375 -47.828125 C 31.144531 -48.867188 31.335938 -49.679688 31.515625 -50.265625 C 32.179688 -52.265625 32.785156 -54.265625 33.328125 -56.265625 C 33.867188 -58.265625 34.515625 -60.222656 35.265625 -62.140625 C 35.429688 -62.640625 35.617188 -63.117188 35.828125 -63.578125 C 36.035156 -64.035156 36.222656 -64.515625 36.390625 -65.015625 C 36.472656 -65.515625 36.578125 -65.992188 36.703125 -66.453125 C 36.828125 -66.910156 36.929688 -67.390625 37.015625 -67.890625 C 37.265625 -68.804688 37.554688 -69.847656 37.890625 -71.015625 C 38.222656 -72.179688 38.554688 -73.222656 38.890625 -74.140625 C 39.222656 -75.472656 39.660156 -76.554688 40.203125 -77.390625 C 40.742188 -78.222656 41.265625 -79.054688 41.765625 -79.890625 C 42.347656 -80.722656 42.890625 -81.515625 43.390625 -82.265625 C 43.890625 -83.015625 44.429688 -83.804688 45.015625 -84.640625 C 45.429688 -85.222656 45.972656 -85.722656 46.640625 -86.140625 C 46.972656 -86.390625 47.367188 -86.617188 47.828125 -86.828125 C 48.285156 -87.035156 48.722656 -87.140625 49.140625 -87.140625 C 49.640625 -87.140625 49.972656 -87.054688 50.140625 -86.890625 C 50.304688 -86.722656 50.597656 -86.640625 51.015625 -86.640625 C 51.179688 -86.640625 51.367188 -86.660156 51.578125 -86.703125 C 51.785156 -86.742188 51.972656 -86.765625 52.140625 -86.765625 C 52.972656 -86.765625 53.578125 -86.660156 53.953125 -86.453125 C 54.328125 -86.242188 54.722656 -86.140625 55.140625 -86.140625 C 55.890625 -86.140625 56.492188 -85.910156 56.953125 -85.453125 C 57.410156 -84.992188 57.640625 -84.515625 57.640625 -84.015625 C 57.640625 -83.679688 57.640625 -83.328125 57.640625 -82.953125 C 57.640625 -82.578125 57.640625 -82.222656 57.640625 -81.890625 C 57.640625 -81.222656 57.660156 -80.535156 57.703125 -79.828125 C 57.742188 -79.117188 57.804688 -78.429688 57.890625 -77.765625 C 57.890625 -77.265625 57.929688 -76.742188 58.015625 -76.203125 C 58.097656 -75.660156 58.140625 -75.140625 58.140625 -74.640625 C 58.140625 -72.972656 58.035156 -71.492188 57.828125 -70.203125 C 57.617188 -68.910156 57.515625 -67.179688 57.515625 -65.015625 C 57.515625 -63.597656 57.578125 -62.429688 57.703125 -61.515625 C 57.828125 -60.597656 57.890625 -59.554688 57.890625 -58.390625 C 57.890625 -57.890625 57.828125 -57.203125 57.703125 -56.328125 C 57.578125 -55.453125 57.515625 -54.640625 57.515625 -53.890625 C 57.515625 -53.722656 57.535156 -53.285156 57.578125 -52.578125 C 57.617188 -51.867188 57.640625 -51.304688 57.640625 -50.890625 C 57.640625 -50.472656 57.617188 -50.035156 57.578125 -49.578125 C 57.535156 -49.117188 57.515625 -48.640625 57.515625 -48.140625 C 57.515625 -47.640625 57.492188 -47.140625 57.453125 -46.640625 C 57.410156 -46.140625 57.390625 -45.597656 57.390625 -45.015625 C 57.390625 -43.765625 57.390625 -42.492188 57.390625 -41.203125 C 57.390625 -39.910156 57.390625 -38.640625 57.390625 -37.390625 C 57.390625 -36.554688 57.367188 -35.722656 57.328125 -34.890625 C 57.285156 -34.054688 57.222656 -33.222656 57.140625 -32.390625 C 57.140625 -32.140625 57.140625 -31.910156 57.140625 -31.703125 C 57.140625 -31.492188 57.140625 -31.257812 57.140625 -31 C 57.140625 -30.75 57.179688 -30.4375 57.265625 -30.0625 C 57.347656 -29.6875 57.390625 -29.289062 57.390625 -28.875 C 57.390625 -28.707031 57.367188 -28.457031 57.328125 -28.125 C 57.285156 -27.789062 57.265625 -27.457031 57.265625 -27.125 C 57.265625 -26.707031 57.285156 -26.269531 57.328125 -25.8125 C 57.367188 -25.351562 57.390625 -24.875 57.390625 -24.375 C 57.390625 -23.875 57.304688 -23.394531 57.140625 -22.9375 C 56.972656 -22.476562 56.890625 -22.125 56.890625 -21.875 C 56.804688 -21.625 56.765625 -21.351562 56.765625 -21.0625 C 56.765625 -20.769531 56.765625 -20.5 56.765625 -20.25 C 56.765625 -19.332031 56.742188 -18.394531 56.703125 -17.4375 C 56.660156 -16.476562 56.640625 -15.539062 56.640625 -14.625 C 56.640625 -14.039062 56.660156 -13.476562 56.703125 -12.9375 C 56.742188 -12.394531 56.765625 -11.875 56.765625 -11.375 C 56.765625 -10.789062 56.742188 -10.226562 56.703125 -9.6875 C 56.660156 -9.144531 56.515625 -8.582031 56.265625 -8 C 56.015625 -7.164062 55.597656 -6.414062 55.015625 -5.75 C 54.929688 -5.582031 54.804688 -5.414062 54.640625 -5.25 C 54.472656 -5.082031 54.347656 -4.914062 54.265625 -4.75 C 54.097656 -4.414062 53.847656 -4.25 53.515625 -4.25 C 53.265625 -4.25 53.054688 -4.289062 52.890625 -4.375 C 52.722656 -4.457031 52.472656 -4.5 52.140625 -4.5 C 51.804688 -4.5 51.429688 -4.375 51.015625 -4.125 C 50.597656 -3.875 50.140625 -3.75 49.640625 -3.75 C 49.140625 -3.75 48.554688 -3.9375 47.890625 -4.3125 C 47.222656 -4.6875 46.640625 -5 46.140625 -5.25 C 45.304688 -5.75 44.472656 -6.289062 43.640625 -6.875 C 42.890625 -7.375 42.390625 -8.019531 42.140625 -8.8125 C 41.890625 -9.601562 41.765625 -10.457031 41.765625 -11.375 C 41.679688 -12.457031 41.640625 -13.5 41.640625 -14.5 C 41.640625 -15.5 41.640625 -16.707031 41.640625 -18.125 C 41.640625 -18.957031 41.679688 -19.832031 41.765625 -20.75 C 41.847656 -21.082031 41.890625 -21.4375 41.890625 -21.8125 C 41.890625 -22.1875 41.890625 -22.539062 41.890625 -22.875 C 41.890625 -24.125 41.890625 -25.332031 41.890625 -26.5 C 41.890625 -27.664062 41.890625 -28.875 41.890625 -30.125 C 41.972656 -31.21875 42.054688 -32.285156 42.140625 -33.328125 C 42.222656 -34.367188 42.347656 -35.429688 42.515625 -36.515625 C 42.929688 -40.847656 43.347656 -45.054688 43.765625 -49.140625 C 43.847656 -50.222656 43.953125 -51.285156 44.078125 -52.328125 C 44.203125 -53.367188 44.304688 -54.429688 44.390625 -55.515625 C 44.472656 -56.347656 44.597656 -57.179688 44.765625 -58.015625 C 44.765625 -58.097656 44.765625 -58.265625 44.765625 -58.515625 C 44.765625 -58.765625 44.765625 -58.972656 44.765625 -59.140625 C 44.765625 -59.304688 44.722656 -59.390625 44.640625 -59.390625 C 44.554688 -59.390625 44.347656 -58.929688 44.015625 -58.015625 C 43.929688 -57.515625 43.828125 -57.015625 43.703125 -56.515625 C 43.578125 -56.015625 43.429688 -55.515625 43.265625 -55.015625 C 43.097656 -54.597656 42.910156 -54.140625 42.703125 -53.640625 C 42.492188 -53.140625 42.304688 -52.679688 42.140625 -52.265625 C 41.972656 -51.765625 41.867188 -51.265625 41.828125 -50.765625 C 41.785156 -50.265625 41.722656 -49.804688 41.640625 -49.390625 C 41.472656 -48.554688 41.222656 -47.597656 40.890625 -46.515625 C 40.304688 -44.429688 39.804688 -42.367188 39.390625 -40.328125 C 38.972656 -38.285156 38.515625 -36.222656 38.015625 -34.140625 C 37.929688 -33.722656 37.847656 -33.285156 37.765625 -32.828125 C 37.679688 -32.367188 37.597656 -31.890625 37.515625 -31.390625 C 37.347656 -30.878906 37.203125 -30.375 37.078125 -29.875 C 36.953125 -29.375 36.765625 -28.875 36.515625 -28.375 C 36.347656 -27.875 36.160156 -27.394531 35.953125 -26.9375 C 35.742188 -26.476562 35.597656 -26.039062 35.515625 -25.625 C 35.347656 -25.125 35.222656 -24.601562 35.140625 -24.0625 C 35.054688 -23.519531 34.929688 -23 34.765625 -22.5 C 34.679688 -22.082031 34.597656 -21.664062 34.515625 -21.25 C 34.429688 -20.832031 34.265625 -20.457031 34.015625 -20.125 C 33.847656 -19.957031 33.515625 -19.644531 33.015625 -19.1875 C 32.515625 -18.726562 32.179688 -18.414062 32.015625 -18.25 C 31.847656 -18.164062 31.570312 -18.019531 31.1875 -17.8125 C 30.8125 -17.601562 30.375 -17.5 29.875 -17.5 C 29.289062 -17.5 28.8125 -17.5625 28.4375 -17.6875 C 28.0625 -17.8125 27.582031 -17.875 27 -17.875 C 25.914062 -17.957031 24.914062 -18.332031 24 -19 C 23.332031 -19.5 22.894531 -20.039062 22.6875 -20.625 C 22.476562 -21.207031 22.289062 -21.914062 22.125 -22.75 C 21.957031 -23.832031 21.789062 -24.894531 21.625 -25.9375 C 21.457031 -26.976562 21.332031 -28.039062 21.25 -29.125 C 21.082031 -30.125 20.875 -31.144531 20.625 -32.1875 C 20.375 -33.238281 20.164062 -34.304688 20 -35.390625 C 19.832031 -36.390625 19.726562 -37.429688 19.6875 -38.515625 C 19.644531 -39.597656 19.539062 -40.640625 19.375 -41.640625 C 19.207031 -42.722656 19 -43.785156 18.75 -44.828125 C 18.5 -45.867188 18.289062 -46.890625 18.125 -47.890625 C 18.125 -48.140625 18.101562 -48.367188 18.0625 -48.578125 C 18.019531 -48.785156 17.957031 -49.015625 17.875 -49.265625 C 17.789062 -49.515625 17.75 -49.890625 17.75 -50.390625 C 17.75 -50.554688 17.726562 -50.722656 17.6875 -50.890625 C 17.644531 -51.054688 17.625 -51.222656 17.625 -51.390625 C 17.625 -52.304688 17.457031 -52.890625 17.125 -53.140625 C 17.039062 -53.054688 17 -52.890625 17 -52.640625 C 17 -52.390625 17 -52.179688 17 -52.015625 C 17 -51.429688 17 -50.847656 17 -50.265625 C 16.914062 -49.765625 16.851562 -49.265625 16.8125 -48.765625 C 16.769531 -48.265625 16.75 -47.765625 16.75 -47.265625 C 16.664062 -46.347656 16.582031 -45.453125 16.5 -44.578125 C 16.414062 -43.703125 16.375 -42.847656 16.375 -42.015625 C 16.375 -41.347656 16.414062 -40.679688 16.5 -40.015625 C 16.582031 -39.347656 16.582031 -38.679688 16.5 -38.015625 C 16.414062 -37.429688 16.332031 -36.953125 16.25 -36.578125 C 16.164062 -36.203125 16.125 -35.722656 16.125 -35.140625 C 16.125 -34.054688 16.125 -32.988281 16.125 -31.9375 C 16.125 -30.894531 16.164062 -29.875 16.25 -28.875 C 16.25 -28.375 16.289062 -27.851562 16.375 -27.3125 C 16.457031 -26.769531 16.5 -26.25 16.5 -25.75 C 16.5 -25.164062 16.476562 -24.625 16.4375 -24.125 C 16.394531 -23.625 16.332031 -23.125 16.25 -22.625 C 16.082031 -21.625 15.894531 -20.601562 15.6875 -19.5625 C 15.476562 -18.519531 15.375 -17.5 15.375 -16.5 C 15.289062 -15.914062 15.269531 -15.351562 15.3125 -14.8125 C 15.351562 -14.269531 15.375 -13.75 15.375 -13.25 C 15.289062 -12.75 15.226562 -12.25 15.1875 -11.75 C 15.144531 -11.25 15.125 -10.75 15.125 -10.25 C 15.039062 -9.664062 14.976562 -9.101562 14.9375 -8.5625 C 14.894531 -8.019531 14.875 -7.5 14.875 -7 C 14.789062 -6.582031 14.707031 -6.1875 14.625 -5.8125 C 14.539062 -5.4375 14.332031 -5.082031 14 -4.75 C 13.332031 -4.082031 12.457031 -3.394531 11.375 -2.6875 C 10.289062 -1.976562 9.289062 -1.5 8.375 -1.25 C 7.957031 -1.082031 7.539062 -1 7.125 -1 Z M 7.125 -1 "/></g></g><g style="fill:#2b2b2b;fill-opacity:1;"><g transform="translate(148.744415, 110.316109)"><path style="stroke:none" d="M 15.125 -65.890625 C 14.625 -65.890625 14.082031 -66.015625 13.5 -66.265625 C 12.25 -66.847656 11.125 -67.304688 10.125 -67.640625 C 9.625 -67.804688 9.125 -68.015625 8.625 -68.265625 C 8.125 -68.515625 7.664062 -68.804688 7.25 -69.140625 C 6.5 -69.804688 5.976562 -70.640625 5.6875 -71.640625 C 5.394531 -72.640625 5.207031 -73.597656 5.125 -74.515625 C 5.039062 -75.015625 4.976562 -75.535156 4.9375 -76.078125 C 4.894531 -76.617188 4.875 -77.140625 4.875 -77.640625 C 4.875 -78.890625 5.082031 -79.929688 5.5 -80.765625 C 5.914062 -81.515625 6.625 -82.179688 7.625 -82.765625 C 8.207031 -83.097656 8.726562 -83.347656 9.1875 -83.515625 C 9.644531 -83.679688 10.125 -83.890625 10.625 -84.140625 C 11.207031 -84.390625 11.769531 -84.597656 12.3125 -84.765625 C 12.851562 -84.929688 13.289062 -85.054688 13.625 -85.140625 C 13.957031 -85.222656 14.3125 -85.304688 14.6875 -85.390625 C 15.0625 -85.472656 15.414062 -85.515625 15.75 -85.515625 C 16.664062 -85.515625 17.375 -85.265625 17.875 -84.765625 L 18.875 -83.765625 C 19.207031 -83.429688 19.394531 -83.054688 19.4375 -82.640625 C 19.476562 -82.222656 19.539062 -81.804688 19.625 -81.390625 C 19.789062 -81.054688 19.976562 -80.679688 20.1875 -80.265625 C 20.394531 -79.847656 20.582031 -79.429688 20.75 -79.015625 C 20.914062 -78.597656 21 -78.140625 21 -77.640625 C 21 -77.304688 20.957031 -76.929688 20.875 -76.515625 C 20.789062 -76.097656 20.707031 -75.660156 20.625 -75.203125 C 20.539062 -74.742188 20.457031 -74.304688 20.375 -73.890625 C 20.289062 -73.390625 20.207031 -72.910156 20.125 -72.453125 C 20.039062 -71.992188 19.914062 -71.554688 19.75 -71.140625 C 19.664062 -70.890625 19.582031 -70.660156 19.5 -70.453125 C 19.414062 -70.242188 19.375 -70.015625 19.375 -69.765625 C 19.375 -69.265625 19.332031 -68.890625 19.25 -68.640625 C 19.082031 -67.722656 18.664062 -67.015625 18 -66.515625 C 17.664062 -66.265625 17.1875 -66.097656 16.5625 -66.015625 C 15.9375 -65.929688 15.457031 -65.890625 15.125 -65.890625 Z M 14 -2.75 C 13.582031 -2.75 13.207031 -2.769531 12.875 -2.8125 C 12.539062 -2.851562 12.164062 -2.914062 11.75 -3 C 11.25 -3.082031 10.769531 -3.144531 10.3125 -3.1875 C 9.851562 -3.226562 9.375 -3.332031 8.875 -3.5 C 8.707031 -3.582031 8.519531 -3.625 8.3125 -3.625 C 8.101562 -3.625 7.875 -3.625 7.625 -3.625 C 7.207031 -3.625 6.75 -3.8125 6.25 -4.1875 C 5.75 -4.5625 5.457031 -4.875 5.375 -5.125 C 5.207031 -5.625 5.082031 -5.957031 5 -6.125 C 4.664062 -6.625 4.457031 -7.039062 4.375 -7.375 C 4.289062 -7.707031 4.25 -8 4.25 -8.25 C 4.25 -9 4.164062 -9.539062 4 -9.875 C 3.832031 -10.207031 3.75 -10.789062 3.75 -11.625 L 3.75 -14 C 3.75 -14.582031 3.769531 -15.226562 3.8125 -15.9375 C 3.851562 -16.644531 3.875 -17.414062 3.875 -18.25 C 3.789062 -18.664062 3.726562 -19.125 3.6875 -19.625 C 3.644531 -20.125 3.625 -20.664062 3.625 -21.25 C 3.625 -22 3.707031 -23.125 3.875 -24.625 C 4.039062 -26.125 4.125 -27.125 4.125 -27.625 C 4.125 -27.957031 4.144531 -28.3125 4.1875 -28.6875 C 4.226562 -29.0625 4.25 -29.457031 4.25 -29.875 C 4.25 -30.207031 4.226562 -30.519531 4.1875 -30.8125 C 4.144531 -31.101562 4.125 -31.503906 4.125 -32.015625 C 4.125 -32.597656 4.164062 -33.140625 4.25 -33.640625 C 4.332031 -34.140625 4.375 -34.597656 4.375 -35.015625 L 4.375 -37.890625 C 4.375 -38.804688 4.457031 -39.660156 4.625 -40.453125 C 4.789062 -41.242188 4.914062 -42.054688 5 -42.890625 C 5.25 -44.640625 5.375 -46.472656 5.375 -48.390625 C 5.375 -48.890625 5.375 -49.347656 5.375 -49.765625 C 5.375 -50.179688 5.375 -50.554688 5.375 -50.890625 C 5.375 -51.640625 5.457031 -52.304688 5.625 -52.890625 C 5.875 -53.554688 6.269531 -54.097656 6.8125 -54.515625 C 7.351562 -54.929688 7.914062 -55.304688 8.5 -55.640625 C 9.25 -56.054688 10.082031 -56.328125 11 -56.453125 C 11.914062 -56.578125 12.625 -56.640625 13.125 -56.640625 C 14.125 -56.640625 15 -56.515625 15.75 -56.265625 C 16.414062 -56.015625 16.914062 -55.597656 17.25 -55.015625 C 17.664062 -54.265625 18.019531 -53.515625 18.3125 -52.765625 C 18.601562 -52.015625 18.75 -51.222656 18.75 -50.390625 C 18.75 -49.972656 18.726562 -49.554688 18.6875 -49.140625 C 18.644531 -48.722656 18.625 -48.304688 18.625 -47.890625 C 18.625 -47.304688 18.644531 -46.765625 18.6875 -46.265625 C 18.726562 -45.765625 18.75 -45.265625 18.75 -44.765625 C 18.75 -43.847656 18.707031 -43.035156 18.625 -42.328125 C 18.539062 -41.617188 18.5 -40.722656 18.5 -39.640625 C 18.5 -39.222656 18.519531 -38.785156 18.5625 -38.328125 C 18.601562 -37.867188 18.625 -37.429688 18.625 -37.015625 C 18.625 -36.515625 18.539062 -36.035156 18.375 -35.578125 C 18.207031 -35.117188 18.125 -34.597656 18.125 -34.015625 C 18.125 -33.179688 18.164062 -32.40625 18.25 -31.6875 C 18.332031 -30.976562 18.457031 -30.164062 18.625 -29.25 C 18.707031 -28.832031 18.789062 -28.375 18.875 -27.875 C 18.957031 -27.375 19 -26.914062 19 -26.5 C 19 -25.914062 18.957031 -25.5 18.875 -25.25 C 18.789062 -25 18.75 -24.625 18.75 -24.125 C 18.75 -23.625 18.851562 -23.1875 19.0625 -22.8125 C 19.269531 -22.4375 19.375 -22 19.375 -21.5 C 19.375 -21 19.351562 -20.601562 19.3125 -20.3125 C 19.269531 -20.019531 19.25 -19.664062 19.25 -19.25 C 19.25 -18.75 19.207031 -18.3125 19.125 -17.9375 C 19.039062 -17.5625 19 -17.082031 19 -16.5 C 19 -16.082031 19 -15.664062 19 -15.25 C 19 -14.832031 18.957031 -14.414062 18.875 -14 C 18.789062 -13.414062 18.6875 -12.875 18.5625 -12.375 C 18.4375 -11.875 18.375 -11.289062 18.375 -10.625 C 18.375 -10.625 18.375 -10.582031 18.375 -10.5 C 18.375 -10.082031 18.394531 -9.601562 18.4375 -9.0625 C 18.476562 -8.519531 18.5 -7.875 18.5 -7.125 C 18.5 -6.207031 18.332031 -5.332031 18 -4.5 C 17.664062 -3.75 17.019531 -3.269531 16.0625 -3.0625 C 15.101562 -2.851562 14.414062 -2.75 14 -2.75 Z M 14 -2.75 "/></g></g><g style="fill:#2b2b2b;fill-opacity:1;"><g transform="translate(173.37487, 110.316109)"><path style="stroke:none" d="M 9.875 -0.625 C 9.457031 -0.625 9.0625 -0.707031 8.6875 -0.875 C 8.3125 -1.039062 7.875 -1.164062 7.375 -1.25 C 7.039062 -1.25 6.539062 -1.375 5.875 -1.625 C 5.207031 -1.875 4.707031 -2.164062 4.375 -2.5 C 4.125 -2.75 3.976562 -3.039062 3.9375 -3.375 C 3.894531 -3.707031 3.875 -4 3.875 -4.25 C 3.875 -4.832031 3.8125 -5.414062 3.6875 -6 C 3.5625 -6.582031 3.457031 -7.207031 3.375 -7.875 C 3.375 -8.457031 3.394531 -9.019531 3.4375 -9.5625 C 3.476562 -10.101562 3.457031 -10.664062 3.375 -11.25 C 3.289062 -12.164062 3.164062 -13.144531 3 -14.1875 C 2.832031 -15.226562 2.75 -16.207031 2.75 -17.125 C 2.75 -18.289062 2.875 -19.351562 3.125 -20.3125 C 3.375 -21.269531 3.5 -22.125 3.5 -22.875 C 3.5 -23.875 3.457031 -24.75 3.375 -25.5 C 3.289062 -26.25 3.289062 -27.164062 3.375 -28.25 C 3.375 -29.082031 3.5 -29.9375 3.75 -30.8125 C 4 -31.695312 4.125 -32.597656 4.125 -33.515625 C 4.125 -34.515625 4.101562 -35.515625 4.0625 -36.515625 C 4.019531 -37.515625 4 -38.515625 4 -39.515625 C 4 -41.515625 4.082031 -43.429688 4.25 -45.265625 C 4.414062 -47.097656 4.5 -48.929688 4.5 -50.765625 C 4.5 -52.679688 4.5625 -54.515625 4.6875 -56.265625 C 4.8125 -58.015625 4.875 -59.804688 4.875 -61.640625 C 4.875 -62.804688 4.851562 -63.847656 4.8125 -64.765625 C 4.769531 -65.679688 4.75 -66.640625 4.75 -67.640625 C 4.75 -69.304688 4.832031 -70.765625 5 -72.015625 C 5.164062 -73.265625 5.25 -74.515625 5.25 -75.765625 C 5.25 -76.347656 5.25 -77.054688 5.25 -77.890625 C 5.25 -78.722656 5.25 -79.429688 5.25 -80.015625 C 5.25 -81.265625 5.3125 -82.304688 5.4375 -83.140625 C 5.5625 -83.972656 5.707031 -84.929688 5.875 -86.015625 C 6.039062 -86.765625 6.164062 -87.722656 6.25 -88.890625 C 6.332031 -90.054688 6.5 -90.847656 6.75 -91.265625 C 7.082031 -91.679688 7.476562 -91.992188 7.9375 -92.203125 C 8.394531 -92.410156 8.832031 -92.515625 9.25 -92.515625 C 9.914062 -92.515625 10.519531 -92.367188 11.0625 -92.078125 C 11.601562 -91.785156 12.5 -91.265625 13.75 -90.515625 C 14.5 -90.097656 15.101562 -89.703125 15.5625 -89.328125 C 16.019531 -88.953125 16.5 -88.390625 17 -87.640625 C 17.332031 -87.140625 17.539062 -86.515625 17.625 -85.765625 C 17.707031 -85.015625 17.75 -84.265625 17.75 -83.515625 C 17.75 -82.765625 17.851562 -81.703125 18.0625 -80.328125 C 18.269531 -78.953125 18.375 -77.929688 18.375 -77.265625 C 18.375 -76.515625 18.332031 -75.765625 18.25 -75.015625 C 18.164062 -74.265625 18.125 -73.515625 18.125 -72.765625 C 18.125 -72.429688 18.1875 -71.890625 18.3125 -71.140625 C 18.4375 -70.390625 18.5 -69.679688 18.5 -69.015625 C 18.582031 -68.265625 18.582031 -67.679688 18.5 -67.265625 C 18.414062 -66.847656 18.375 -66.472656 18.375 -66.140625 C 18.375 -65.890625 18.4375 -65.554688 18.5625 -65.140625 C 18.6875 -64.722656 18.75 -64.429688 18.75 -64.265625 C 18.75 -64.015625 18.726562 -63.785156 18.6875 -63.578125 C 18.644531 -63.367188 18.625 -63.097656 18.625 -62.765625 C 18.539062 -61.765625 18.519531 -60.722656 18.5625 -59.640625 C 18.601562 -58.554688 18.625 -57.472656 18.625 -56.390625 C 18.625 -55.554688 18.601562 -54.703125 18.5625 -53.828125 C 18.519531 -52.953125 18.5 -52.054688 18.5 -51.140625 C 18.5 -50.304688 18.539062 -49.472656 18.625 -48.640625 C 18.707031 -47.804688 18.832031 -46.972656 19 -46.140625 C 19.082031 -45.890625 19.125 -45.679688 19.125 -45.515625 C 19.125 -45.265625 19.0625 -44.953125 18.9375 -44.578125 C 18.8125 -44.203125 18.75 -43.847656 18.75 -43.515625 C 18.75 -43.179688 18.8125 -42.765625 18.9375 -42.265625 C 19.0625 -41.765625 19.125 -41.222656 19.125 -40.640625 C 19.125 -40.140625 19.101562 -39.640625 19.0625 -39.140625 C 19.019531 -38.640625 19 -38.140625 19 -37.640625 C 19 -36.222656 18.914062 -34.757812 18.75 -33.25 C 18.582031 -31.75 18.5 -30.332031 18.5 -29 C 18.5 -28.25 18.539062 -27.539062 18.625 -26.875 C 18.707031 -26.207031 18.75 -25.582031 18.75 -25 C 18.75 -24 18.6875 -23.039062 18.5625 -22.125 C 18.4375 -21.207031 18.332031 -20.289062 18.25 -19.375 C 18.25 -18.707031 18.207031 -17.894531 18.125 -16.9375 C 18.039062 -15.976562 18 -15.164062 18 -14.5 C 18.082031 -13.75 18.164062 -13.101562 18.25 -12.5625 C 18.332031 -12.019531 18.375 -11.457031 18.375 -10.875 C 18.375 -9.789062 18.269531 -9.039062 18.0625 -8.625 C 17.851562 -8.207031 17.75 -7.664062 17.75 -7 C 17.75 -6.664062 17.75 -6.394531 17.75 -6.1875 C 17.75 -5.976562 17.789062 -5.707031 17.875 -5.375 C 17.875 -5.039062 17.769531 -4.6875 17.5625 -4.3125 C 17.351562 -3.9375 17.164062 -3.539062 17 -3.125 C 16.832031 -2.789062 16.75 -2.476562 16.75 -2.1875 C 16.75 -1.894531 16.582031 -1.625 16.25 -1.375 C 16 -1.125 15.6875 -0.976562 15.3125 -0.9375 C 14.9375 -0.894531 14.582031 -0.875 14.25 -0.875 C 13.832031 -0.875 13.457031 -0.914062 13.125 -1 C 12.789062 -1.082031 12.414062 -1.125 12 -1.125 C 11.664062 -1.125 11.332031 -1.039062 11 -0.875 C 10.664062 -0.707031 10.289062 -0.625 9.875 -0.625 Z M 9.875 -0.625 "/></g></g><g style="fill:#2b2b2b;fill-opacity:1;"><g transform="translate(197.005109, 110.316109)"><path style="stroke:none" d="M 9.875 -0.625 C 9.457031 -0.625 9.0625 -0.707031 8.6875 -0.875 C 8.3125 -1.039062 7.875 -1.164062 7.375 -1.25 C 7.039062 -1.25 6.539062 -1.375 5.875 -1.625 C 5.207031 -1.875 4.707031 -2.164062 4.375 -2.5 C 4.125 -2.75 3.976562 -3.039062 3.9375 -3.375 C 3.894531 -3.707031 3.875 -4 3.875 -4.25 C 3.875 -4.832031 3.8125 -5.414062 3.6875 -6 C 3.5625 -6.582031 3.457031 -7.207031 3.375 -7.875 C 3.375 -8.457031 3.394531 -9.019531 3.4375 -9.5625 C 3.476562 -10.101562 3.457031 -10.664062 3.375 -11.25 C 3.289062 -12.164062 3.164062 -13.144531 3 -14.1875 C 2.832031 -15.226562 2.75 -16.207031 2.75 -17.125 C 2.75 -18.289062 2.875 -19.351562 3.125 -20.3125 C 3.375 -21.269531 3.5 -22.125 3.5 -22.875 C 3.5 -23.875 3.457031 -24.75 3.375 -25.5 C 3.289062 -26.25 3.289062 -27.164062 3.375 -28.25 C 3.375 -29.082031 3.5 -29.9375 3.75 -30.8125 C 4 -31.695312 4.125 -32.597656 4.125 -33.515625 C 4.125 -34.515625 4.101562 -35.515625 4.0625 -36.515625 C 4.019531 -37.515625 4 -38.515625 4 -39.515625 C 4 -41.515625 4.082031 -43.429688 4.25 -45.265625 C 4.414062 -47.097656 4.5 -48.929688 4.5 -50.765625 C 4.5 -52.679688 4.5625 -54.515625 4.6875 -56.265625 C 4.8125 -58.015625 4.875 -59.804688 4.875 -61.640625 C 4.875 -62.804688 4.851562 -63.847656 4.8125 -64.765625 C 4.769531 -65.679688 4.75 -66.640625 4.75 -67.640625 C 4.75 -69.304688 4.832031 -70.765625 5 -72.015625 C 5.164062 -73.265625 5.25 -74.515625 5.25 -75.765625 C 5.25 -76.347656 5.25 -77.054688 5.25 -77.890625 C 5.25 -78.722656 5.25 -79.429688 5.25 -80.015625 C 5.25 -81.265625 5.3125 -82.304688 5.4375 -83.140625 C 5.5625 -83.972656 5.707031 -84.929688 5.875 -86.015625 C 6.039062 -86.765625 6.164062 -87.722656 6.25 -88.890625 C 6.332031 -90.054688 6.5 -90.847656 6.75 -91.265625 C 7.082031 -91.679688 7.476562 -91.992188 7.9375 -92.203125 C 8.394531 -92.410156 8.832031 -92.515625 9.25 -92.515625 C 9.914062 -92.515625 10.519531 -92.367188 11.0625 -92.078125 C 11.601562 -91.785156 12.5 -91.265625 13.75 -90.515625 C 14.5 -90.097656 15.101562 -89.703125 15.5625 -89.328125 C 16.019531 -88.953125 16.5 -88.390625 17 -87.640625 C 17.332031 -87.140625 17.539062 -86.515625 17.625 -85.765625 C 17.707031 -85.015625 17.75 -84.265625 17.75 -83.515625 C 17.75 -82.765625 17.851562 -81.703125 18.0625 -80.328125 C 18.269531 -78.953125 18.375 -77.929688 18.375 -77.265625 C 18.375 -76.515625 18.332031 -75.765625 18.25 -75.015625 C 18.164062 -74.265625 18.125 -73.515625 18.125 -72.765625 C 18.125 -72.429688 18.1875 -71.890625 18.3125 -71.140625 C 18.4375 -70.390625 18.5 -69.679688 18.5 -69.015625 C 18.582031 -68.265625 18.582031 -67.679688 18.5 -67.265625 C 18.414062 -66.847656 18.375 -66.472656 18.375 -66.140625 C 18.375 -65.890625 18.4375 -65.554688 18.5625 -65.140625 C 18.6875 -64.722656 18.75 -64.429688 18.75 -64.265625 C 18.75 -64.015625 18.726562 -63.785156 18.6875 -63.578125 C 18.644531 -63.367188 18.625 -63.097656 18.625 -62.765625 C 18.539062 -61.765625 18.519531 -60.722656 18.5625 -59.640625 C 18.601562 -58.554688 18.625 -57.472656 18.625 -56.390625 C 18.625 -55.554688 18.601562 -54.703125 18.5625 -53.828125 C 18.519531 -52.953125 18.5 -52.054688 18.5 -51.140625 C 18.5 -50.304688 18.539062 -49.472656 18.625 -48.640625 C 18.707031 -47.804688 18.832031 -46.972656 19 -46.140625 C 19.082031 -45.890625 19.125 -45.679688 19.125 -45.515625 C 19.125 -45.265625 19.0625 -44.953125 18.9375 -44.578125 C 18.8125 -44.203125 18.75 -43.847656 18.75 -43.515625 C 18.75 -43.179688 18.8125 -42.765625 18.9375 -42.265625 C 19.0625 -41.765625 19.125 -41.222656 19.125 -40.640625 C 19.125 -40.140625 19.101562 -39.640625 19.0625 -39.140625 C 19.019531 -38.640625 19 -38.140625 19 -37.640625 C 19 -36.222656 18.914062 -34.757812 18.75 -33.25 C 18.582031 -31.75 18.5 -30.332031 18.5 -29 C 18.5 -28.25 18.539062 -27.539062 18.625 -26.875 C 18.707031 -26.207031 18.75 -25.582031 18.75 -25 C 18.75 -24 18.6875 -23.039062 18.5625 -22.125 C 18.4375 -21.207031 18.332031 -20.289062 18.25 -19.375 C 18.25 -18.707031 18.207031 -17.894531 18.125 -16.9375 C 18.039062 -15.976562 18 -15.164062 18 -14.5 C 18.082031 -13.75 18.164062 -13.101562 18.25 -12.5625 C 18.332031 -12.019531 18.375 -11.457031 18.375 -10.875 C 18.375 -9.789062 18.269531 -9.039062 18.0625 -8.625 C 17.851562 -8.207031 17.75 -7.664062 17.75 -7 C 17.75 -6.664062 17.75 -6.394531 17.75 -6.1875 C 17.75 -5.976562 17.789062 -5.707031 17.875 -5.375 C 17.875 -5.039062 17.769531 -4.6875 17.5625 -4.3125 C 17.351562 -3.9375 17.164062 -3.539062 17 -3.125 C 16.832031 -2.789062 16.75 -2.476562 16.75 -2.1875 C 16.75 -1.894531 16.582031 -1.625 16.25 -1.375 C 16 -1.125 15.6875 -0.976562 15.3125 -0.9375 C 14.9375 -0.894531 14.582031 -0.875 14.25 -0.875 C 13.832031 -0.875 13.457031 -0.914062 13.125 -1 C 12.789062 -1.082031 12.414062 -1.125 12 -1.125 C 11.664062 -1.125 11.332031 -1.039062 11 -0.875 C 10.664062 -0.707031 10.289062 -0.625 9.875 -0.625 Z M 9.875 -0.625 "/></g></g><g style="fill:#2b2b2b;fill-opacity:1;"><g transform="translate(220.635348, 110.316109)"><path style="stroke:none" d="M 34.140625 2.125 C 33.472656 2.125 32.78125 2.0625 32.0625 1.9375 C 31.351562 1.8125 30.625 1.539062 29.875 1.125 C 29.457031 0.875 29.039062 0.6875 28.625 0.5625 C 28.207031 0.4375 27.832031 0.25 27.5 0 C 27.082031 -0.25 26.707031 -0.5 26.375 -0.75 C 26.039062 -1 25.75 -1.332031 25.5 -1.75 C 25.25 -2.164062 25.082031 -2.601562 25 -3.0625 C 24.914062 -3.519531 24.832031 -3.957031 24.75 -4.375 C 24.582031 -5.289062 24.414062 -5.75 24.25 -5.75 C 24.082031 -5.75 23.789062 -5.625 23.375 -5.375 C 22.707031 -4.957031 21.976562 -4.601562 21.1875 -4.3125 C 20.394531 -4.019531 19.625 -3.875 18.875 -3.875 C 18.625 -3.875 18.351562 -3.914062 18.0625 -4 C 17.769531 -4.082031 17.5 -4.125 17.25 -4.125 C 17 -4.125 16.8125 -4.082031 16.6875 -4 C 16.5625 -3.914062 16.414062 -3.914062 16.25 -4 C 16.082031 -4 15.914062 -4.019531 15.75 -4.0625 C 15.582031 -4.101562 15.414062 -4.125 15.25 -4.125 C 15.082031 -4.125 14.9375 -4.125 14.8125 -4.125 C 14.6875 -4.125 14.539062 -4.125 14.375 -4.125 C 13.957031 -4.125 13.644531 -4.207031 13.4375 -4.375 C 13.226562 -4.539062 12.957031 -4.664062 12.625 -4.75 C 12.289062 -4.832031 11.875 -4.875 11.375 -4.875 C 11.039062 -4.875 10.789062 -4.914062 10.625 -5 C 10.457031 -5.082031 10.25 -5.207031 10 -5.375 C 9.582031 -5.625 9.144531 -5.8125 8.6875 -5.9375 C 8.226562 -6.0625 7.75 -6.332031 7.25 -6.75 C 6.5 -7.414062 5.8125 -8.082031 5.1875 -8.75 C 4.5625 -9.414062 3.957031 -10.207031 3.375 -11.125 C 3.125 -11.457031 2.976562 -11.875 2.9375 -12.375 C 2.894531 -12.875 2.789062 -13.375 2.625 -13.875 C 2.539062 -14.289062 2.394531 -14.789062 2.1875 -15.375 C 1.976562 -15.957031 1.789062 -16.539062 1.625 -17.125 C 1.539062 -17.289062 1.476562 -17.476562 1.4375 -17.6875 C 1.394531 -17.894531 1.375 -18.082031 1.375 -18.25 C 1.375 -18.414062 1.414062 -18.601562 1.5 -18.8125 C 1.582031 -19.019531 1.625 -19.207031 1.625 -19.375 C 1.625 -19.707031 1.601562 -19.976562 1.5625 -20.1875 C 1.519531 -20.394531 1.5 -20.582031 1.5 -20.75 C 1.5 -20.914062 1.5625 -21.164062 1.6875 -21.5 C 1.8125 -21.832031 1.914062 -22.164062 2 -22.5 C 2.082031 -22.914062 2.1875 -23.351562 2.3125 -23.8125 C 2.4375 -24.269531 2.625 -24.664062 2.875 -25 C 3.207031 -25.414062 3.539062 -25.8125 3.875 -26.1875 C 4.207031 -26.5625 4.539062 -26.914062 4.875 -27.25 C 5.289062 -27.664062 5.664062 -27.9375 6 -28.0625 C 6.332031 -28.1875 6.75 -28.332031 7.25 -28.5 C 7.582031 -28.582031 7.914062 -28.75 8.25 -29 C 8.582031 -29.164062 8.875 -29.269531 9.125 -29.3125 C 9.375 -29.351562 9.625 -29.414062 9.875 -29.5 C 10.375 -29.664062 10.75 -29.789062 11 -29.875 C 11.25 -29.957031 11.664062 -30.039062 12.25 -30.125 C 12.5 -30.207031 12.769531 -30.25 13.0625 -30.25 C 13.351562 -30.25 13.664062 -30.289062 14 -30.375 C 14.25 -30.457031 14.4375 -30.5625 14.5625 -30.6875 C 14.6875 -30.8125 14.914062 -30.875 15.25 -30.875 C 15.582031 -30.875 15.894531 -30.851562 16.1875 -30.8125 C 16.476562 -30.769531 16.789062 -30.75 17.125 -30.75 C 17.289062 -30.75 17.625 -30.769531 18.125 -30.8125 C 18.625 -30.851562 18.957031 -30.875 19.125 -30.875 C 19.625 -30.875 20.082031 -30.789062 20.5 -30.625 C 20.914062 -30.457031 21.625 -30.125 22.625 -29.625 C 22.875 -29.539062 23.226562 -29.394531 23.6875 -29.1875 C 24.144531 -28.976562 24.539062 -28.875 24.875 -28.875 C 25.207031 -28.875 25.414062 -29.164062 25.5 -29.75 C 25.5 -30 25.5 -30.25 25.5 -30.5 C 25.5 -31.757812 25.539062 -32.679688 25.625 -33.265625 C 25.707031 -33.847656 25.75 -34.472656 25.75 -35.140625 C 25.75 -36.304688 25.707031 -37.390625 25.625 -38.390625 C 25.539062 -39.390625 25.5 -40.472656 25.5 -41.640625 C 25.5 -42.722656 25.5 -43.804688 25.5 -44.890625 C 25.5 -45.972656 25.457031 -47.097656 25.375 -48.265625 C 25.375 -48.679688 25.3125 -49.160156 25.1875 -49.703125 C 25.0625 -50.242188 24.914062 -50.679688 24.75 -51.015625 C 24.582031 -51.347656 24.207031 -51.515625 23.625 -51.515625 C 23.125 -51.515625 22.707031 -51.429688 22.375 -51.265625 C 21.539062 -50.929688 21.0625 -50.617188 20.9375 -50.328125 C 20.8125 -50.035156 20.5 -49.515625 20 -48.765625 C 19.582031 -48.097656 19.289062 -47.429688 19.125 -46.765625 C 19.125 -46.597656 19.039062 -46.347656 18.875 -46.015625 C 18.625 -45.597656 18.414062 -45.222656 18.25 -44.890625 C 18.082031 -44.554688 17.957031 -44.097656 17.875 -43.515625 C 17.789062 -43.097656 17.6875 -42.679688 17.5625 -42.265625 C 17.4375 -41.847656 17.375 -41.304688 17.375 -40.640625 C 17.375 -40.140625 17.394531 -39.742188 17.4375 -39.453125 C 17.476562 -39.160156 17.5 -38.722656 17.5 -38.140625 C 17.5 -37.722656 17.3125 -37.347656 16.9375 -37.015625 C 16.5625 -36.679688 16.25 -36.390625 16 -36.140625 C 15.5 -35.804688 15 -35.535156 14.5 -35.328125 C 14 -35.117188 13.289062 -35.015625 12.375 -35.015625 C 11.789062 -35.015625 11.351562 -35.054688 11.0625 -35.140625 C 10.769531 -35.222656 10.332031 -35.265625 9.75 -35.265625 C 9.5 -35.265625 9.207031 -35.242188 8.875 -35.203125 C 8.539062 -35.160156 8.25 -35.140625 8 -35.140625 C 7.664062 -35.140625 7.332031 -35.222656 7 -35.390625 C 6.664062 -35.554688 6.414062 -35.722656 6.25 -35.890625 C 5.582031 -36.304688 5.164062 -36.722656 5 -37.140625 C 4.832031 -37.554688 4.75 -38.222656 4.75 -39.140625 C 4.75 -39.640625 4.789062 -40.179688 4.875 -40.765625 C 4.957031 -41.929688 5.082031 -42.992188 5.25 -43.953125 C 5.414062 -44.910156 5.625 -45.929688 5.875 -47.015625 C 6.125 -48.097656 6.457031 -49.097656 6.875 -50.015625 C 7.289062 -50.929688 7.789062 -51.847656 8.375 -52.765625 C 8.875 -53.597656 9.351562 -54.203125 9.8125 -54.578125 C 10.269531 -54.953125 10.875 -55.472656 11.625 -56.140625 C 12.289062 -56.804688 13.039062 -57.304688 13.875 -57.640625 C 14.707031 -57.972656 15.582031 -58.304688 16.5 -58.640625 C 17 -58.804688 17.476562 -58.953125 17.9375 -59.078125 C 18.394531 -59.203125 18.914062 -59.304688 19.5 -59.390625 C 20.664062 -59.640625 21.75 -59.765625 22.75 -59.765625 C 23.332031 -59.765625 23.832031 -59.703125 24.25 -59.578125 C 24.664062 -59.453125 25.125 -59.304688 25.625 -59.140625 C 26.125 -59.054688 26.644531 -58.953125 27.1875 -58.828125 C 27.726562 -58.703125 28.25 -58.554688 28.75 -58.390625 C 29.25 -58.304688 29.664062 -58.140625 30 -57.890625 C 30.832031 -57.554688 31.4375 -57.179688 31.8125 -56.765625 C 32.195312 -56.347656 32.765625 -55.972656 33.515625 -55.640625 C 33.847656 -55.472656 34.097656 -55.367188 34.265625 -55.328125 C 34.429688 -55.285156 34.679688 -55.140625 35.015625 -54.890625 C 35.179688 -54.804688 35.328125 -54.660156 35.453125 -54.453125 C 35.578125 -54.242188 35.679688 -54.054688 35.765625 -53.890625 C 36.097656 -53.472656 36.390625 -53.015625 36.640625 -52.515625 C 36.890625 -52.015625 37.097656 -51.554688 37.265625 -51.140625 C 37.515625 -50.640625 37.722656 -50.179688 37.890625 -49.765625 C 38.054688 -49.347656 38.222656 -48.890625 38.390625 -48.390625 C 38.554688 -47.890625 38.703125 -47.347656 38.828125 -46.765625 C 38.953125 -46.179688 39.097656 -45.640625 39.265625 -45.140625 C 39.429688 -44.554688 39.515625 -43.972656 39.515625 -43.390625 C 39.515625 -42.890625 39.515625 -42.304688 39.515625 -41.640625 C 39.515625 -40.972656 39.515625 -40.554688 39.515625 -40.390625 C 39.429688 -39.140625 39.328125 -37.867188 39.203125 -36.578125 C 39.078125 -35.285156 39.015625 -34.015625 39.015625 -32.765625 C 39.015625 -32.429688 39.035156 -32.09375 39.078125 -31.75 C 39.117188 -31.414062 39.140625 -31.082031 39.140625 -30.75 C 39.140625 -30.414062 39.097656 -30.125 39.015625 -29.875 C 38.929688 -29.625 38.890625 -29.414062 38.890625 -29.25 C 38.890625 -29.164062 38.910156 -29.0625 38.953125 -28.9375 C 38.992188 -28.8125 39.015625 -28.664062 39.015625 -28.5 C 39.015625 -28.082031 38.929688 -27.625 38.765625 -27.125 C 38.515625 -26.039062 38.429688 -25 38.515625 -24 C 38.597656 -23 38.597656 -21.957031 38.515625 -20.875 C 38.429688 -19.789062 38.429688 -18.726562 38.515625 -17.6875 C 38.597656 -16.644531 38.679688 -15.539062 38.765625 -14.375 C 38.765625 -13.789062 38.785156 -13.226562 38.828125 -12.6875 C 38.867188 -12.144531 38.890625 -11.539062 38.890625 -10.875 C 38.890625 -10.375 38.953125 -9.914062 39.078125 -9.5 C 39.203125 -9.082031 39.265625 -8.582031 39.265625 -8 C 39.265625 -7.582031 39.222656 -7.226562 39.140625 -6.9375 C 39.054688 -6.644531 39.015625 -6.332031 39.015625 -6 C 39.015625 -5.832031 39.015625 -5.6875 39.015625 -5.5625 C 39.015625 -5.4375 39.015625 -5.289062 39.015625 -5.125 C 39.015625 -5.039062 39.015625 -4.9375 39.015625 -4.8125 C 39.015625 -4.6875 38.972656 -4.457031 38.890625 -4.125 C 38.890625 -3.875 38.890625 -3.601562 38.890625 -3.3125 C 38.890625 -3.019531 38.847656 -2.75 38.765625 -2.5 C 38.679688 -2.082031 38.535156 -1.664062 38.328125 -1.25 C 38.117188 -0.832031 37.929688 -0.414062 37.765625 0 C 37.347656 0.75 36.890625 1.289062 36.390625 1.625 C 35.890625 1.957031 35.140625 2.125 34.140625 2.125 Z M 17.625 -12.25 C 17.875 -12.25 18.125 -12.269531 18.375 -12.3125 C 18.625 -12.351562 18.875 -12.375 19.125 -12.375 C 19.539062 -12.375 19.875 -12.351562 20.125 -12.3125 C 20.375 -12.269531 20.664062 -12.332031 21 -12.5 C 21.25 -12.582031 21.4375 -12.75 21.5625 -13 C 21.6875 -13.25 21.832031 -13.457031 22 -13.625 C 22.164062 -13.875 22.351562 -14.0625 22.5625 -14.1875 C 22.769531 -14.3125 23 -14.5 23.25 -14.75 C 23.5 -15 23.6875 -15.226562 23.8125 -15.4375 C 23.9375 -15.644531 24.082031 -15.875 24.25 -16.125 C 24.414062 -16.375 24.601562 -16.601562 24.8125 -16.8125 C 25.019531 -17.019531 25.125 -17.289062 25.125 -17.625 C 25.125 -17.789062 25.039062 -18 24.875 -18.25 C 24.707031 -18.5 24.582031 -18.707031 24.5 -18.875 C 24.332031 -19.125 24.164062 -19.375 24 -19.625 C 23.832031 -19.875 23.664062 -20.125 23.5 -20.375 C 23.25 -20.789062 22.914062 -21.144531 22.5 -21.4375 C 22.082031 -21.726562 21.664062 -22 21.25 -22.25 C 20.582031 -22.582031 19.875 -22.75 19.125 -22.75 C 18.789062 -22.75 18.394531 -22.6875 17.9375 -22.5625 C 17.476562 -22.4375 17.164062 -22.207031 17 -21.875 C 16.832031 -21.625 16.769531 -21.4375 16.8125 -21.3125 C 16.851562 -21.1875 16.789062 -21 16.625 -20.75 C 16.375 -20.414062 16.039062 -20.039062 15.625 -19.625 C 15.207031 -19.207031 15 -18.75 15 -18.25 C 15 -17.914062 15.019531 -17.664062 15.0625 -17.5 C 15.101562 -17.332031 15.125 -17.125 15.125 -16.875 C 15.125 -16.707031 15.101562 -16.519531 15.0625 -16.3125 C 15.019531 -16.101562 15 -15.914062 15 -15.75 C 15 -14.832031 15.164062 -14.082031 15.5 -13.5 C 16 -12.664062 16.707031 -12.25 17.625 -12.25 Z M 17.625 -12.25 "/></g></g></g></g></g></svg>